<mxfile host="app.diagrams.net" modified="2022-10-25T07:16:17.880Z" agent="5.0 (Macintosh; Intel Mac OS X 10_15_7) AppleWebKit/537.36 (KHTML, like Gecko) Chrome/106.0.0.0 Safari/537.36" etag="uPScKGoJUXkUPE1hkOS7" version="18.1.2" type="github">
  <diagram id="OVVGV28AOCDSIqvU2S_A" name="第 1 页">
    <mxGraphModel dx="923" dy="637" grid="1" gridSize="10" guides="1" tooltips="1" connect="1" arrows="1" fold="1" page="1" pageScale="1" pageWidth="827" pageHeight="1169" math="0" shadow="0">
      <root>
        <mxCell id="0" />
        <mxCell id="1" parent="0" />
        <mxCell id="ChtlxZ_2Yp7la0aCDKQO-10" style="edgeStyle=orthogonalEdgeStyle;rounded=0;orthogonalLoop=1;jettySize=auto;html=1;entryX=0.439;entryY=-0.009;entryDx=0;entryDy=0;entryPerimeter=0;" edge="1" parent="1" source="ChtlxZ_2Yp7la0aCDKQO-1" target="ChtlxZ_2Yp7la0aCDKQO-7">
          <mxGeometry relative="1" as="geometry" />
        </mxCell>
        <mxCell id="ChtlxZ_2Yp7la0aCDKQO-1" value="FD" style="rounded=1;whiteSpace=wrap;html=1;" vertex="1" parent="1">
          <mxGeometry x="220" y="280" width="40" height="30" as="geometry" />
        </mxCell>
        <mxCell id="ChtlxZ_2Yp7la0aCDKQO-11" style="edgeStyle=orthogonalEdgeStyle;rounded=0;orthogonalLoop=1;jettySize=auto;html=1;entryX=0.528;entryY=0;entryDx=0;entryDy=0;entryPerimeter=0;" edge="1" parent="1" source="ChtlxZ_2Yp7la0aCDKQO-3" target="ChtlxZ_2Yp7la0aCDKQO-5">
          <mxGeometry relative="1" as="geometry" />
        </mxCell>
        <mxCell id="ChtlxZ_2Yp7la0aCDKQO-3" value="FD" style="rounded=1;whiteSpace=wrap;html=1;" vertex="1" parent="1">
          <mxGeometry x="330" y="280" width="40" height="30" as="geometry" />
        </mxCell>
        <mxCell id="ChtlxZ_2Yp7la0aCDKQO-12" style="edgeStyle=orthogonalEdgeStyle;rounded=0;orthogonalLoop=1;jettySize=auto;html=1;entryX=0.533;entryY=0;entryDx=0;entryDy=0;entryPerimeter=0;" edge="1" parent="1" source="ChtlxZ_2Yp7la0aCDKQO-4" target="ChtlxZ_2Yp7la0aCDKQO-6">
          <mxGeometry relative="1" as="geometry" />
        </mxCell>
        <mxCell id="ChtlxZ_2Yp7la0aCDKQO-4" value="FD" style="rounded=1;whiteSpace=wrap;html=1;" vertex="1" parent="1">
          <mxGeometry x="440" y="280" width="40" height="30" as="geometry" />
        </mxCell>
        <mxCell id="ChtlxZ_2Yp7la0aCDKQO-23" style="edgeStyle=orthogonalEdgeStyle;rounded=0;orthogonalLoop=1;jettySize=auto;html=1;fontSize=4;startSize=5;endSize=2;targetPerimeterSpacing=2;" edge="1" parent="1" source="ChtlxZ_2Yp7la0aCDKQO-5">
          <mxGeometry relative="1" as="geometry">
            <mxPoint x="347" y="460" as="targetPoint" />
          </mxGeometry>
        </mxCell>
        <mxCell id="ChtlxZ_2Yp7la0aCDKQO-5" value="OtherEvent" style="rounded=1;whiteSpace=wrap;html=1;" vertex="1" parent="1">
          <mxGeometry x="294" y="360" width="106" height="30" as="geometry" />
        </mxCell>
        <mxCell id="ChtlxZ_2Yp7la0aCDKQO-22" style="edgeStyle=orthogonalEdgeStyle;rounded=0;orthogonalLoop=1;jettySize=auto;html=1;entryX=0.5;entryY=0;entryDx=0;entryDy=0;fontSize=4;startSize=5;endSize=2;targetPerimeterSpacing=2;" edge="1" parent="1" source="ChtlxZ_2Yp7la0aCDKQO-6" target="ChtlxZ_2Yp7la0aCDKQO-16">
          <mxGeometry relative="1" as="geometry">
            <Array as="points">
              <mxPoint x="467" y="430" />
              <mxPoint x="347" y="430" />
            </Array>
          </mxGeometry>
        </mxCell>
        <mxCell id="ChtlxZ_2Yp7la0aCDKQO-6" value="ReadEvent" style="rounded=1;whiteSpace=wrap;html=1;" vertex="1" parent="1">
          <mxGeometry x="413.5" y="360" width="106" height="30" as="geometry" />
        </mxCell>
        <mxCell id="ChtlxZ_2Yp7la0aCDKQO-17" style="edgeStyle=orthogonalEdgeStyle;rounded=0;orthogonalLoop=1;jettySize=auto;html=1;fontSize=4;entryX=0.5;entryY=0;entryDx=0;entryDy=0;" edge="1" parent="1" source="ChtlxZ_2Yp7la0aCDKQO-7" target="ChtlxZ_2Yp7la0aCDKQO-16">
          <mxGeometry relative="1" as="geometry">
            <mxPoint x="279.9999999999999" y="470" as="targetPoint" />
            <Array as="points">
              <mxPoint x="227" y="430" />
              <mxPoint x="347" y="430" />
            </Array>
          </mxGeometry>
        </mxCell>
        <mxCell id="ChtlxZ_2Yp7la0aCDKQO-7" value="WriteEvent" style="rounded=1;whiteSpace=wrap;html=1;" vertex="1" parent="1">
          <mxGeometry x="174" y="360" width="106" height="30" as="geometry" />
        </mxCell>
        <mxCell id="ChtlxZ_2Yp7la0aCDKQO-13" value="&lt;font style=&quot;font-size: 4px;&quot;&gt;事件发生&lt;/font&gt;" style="text;html=1;align=center;verticalAlign=middle;resizable=0;points=[];autosize=1;strokeColor=none;fillColor=none;fontSize=4;" vertex="1" parent="1">
          <mxGeometry x="240" y="325" width="60" height="10" as="geometry" />
        </mxCell>
        <mxCell id="ChtlxZ_2Yp7la0aCDKQO-14" value="&lt;font style=&quot;font-size: 4px;&quot;&gt;事件发生&lt;/font&gt;" style="text;html=1;align=center;verticalAlign=middle;resizable=0;points=[];autosize=1;strokeColor=none;fillColor=none;fontSize=4;" vertex="1" parent="1">
          <mxGeometry x="350" y="325" width="60" height="10" as="geometry" />
        </mxCell>
        <mxCell id="ChtlxZ_2Yp7la0aCDKQO-15" value="&lt;font style=&quot;font-size: 4px;&quot;&gt;事件发生&lt;/font&gt;" style="text;html=1;align=center;verticalAlign=middle;resizable=0;points=[];autosize=1;strokeColor=none;fillColor=none;fontSize=4;" vertex="1" parent="1">
          <mxGeometry x="470" y="325" width="60" height="10" as="geometry" />
        </mxCell>
        <mxCell id="ChtlxZ_2Yp7la0aCDKQO-33" style="edgeStyle=orthogonalEdgeStyle;rounded=0;orthogonalLoop=1;jettySize=auto;html=1;entryX=0;entryY=0.5;entryDx=0;entryDy=0;fontFamily=Lucida Console;fontSize=1;startSize=5;endSize=2;targetPerimeterSpacing=2;" edge="1" parent="1" source="ChtlxZ_2Yp7la0aCDKQO-16" target="ChtlxZ_2Yp7la0aCDKQO-29">
          <mxGeometry relative="1" as="geometry">
            <Array as="points">
              <mxPoint x="347" y="630" />
            </Array>
          </mxGeometry>
        </mxCell>
        <mxCell id="ChtlxZ_2Yp7la0aCDKQO-34" style="edgeStyle=orthogonalEdgeStyle;rounded=0;orthogonalLoop=1;jettySize=auto;html=1;entryX=0;entryY=0.5;entryDx=0;entryDy=0;fontFamily=Lucida Console;fontSize=1;startSize=5;endSize=2;targetPerimeterSpacing=2;" edge="1" parent="1" source="ChtlxZ_2Yp7la0aCDKQO-16" target="ChtlxZ_2Yp7la0aCDKQO-30">
          <mxGeometry relative="1" as="geometry">
            <Array as="points">
              <mxPoint x="347" y="670" />
            </Array>
          </mxGeometry>
        </mxCell>
        <mxCell id="ChtlxZ_2Yp7la0aCDKQO-35" style="edgeStyle=orthogonalEdgeStyle;rounded=0;orthogonalLoop=1;jettySize=auto;html=1;entryX=0;entryY=0.5;entryDx=0;entryDy=0;fontFamily=Lucida Console;fontSize=1;startSize=5;endSize=2;targetPerimeterSpacing=2;" edge="1" parent="1" source="ChtlxZ_2Yp7la0aCDKQO-16" target="ChtlxZ_2Yp7la0aCDKQO-31">
          <mxGeometry relative="1" as="geometry">
            <Array as="points">
              <mxPoint x="347" y="710" />
            </Array>
          </mxGeometry>
        </mxCell>
        <mxCell id="ChtlxZ_2Yp7la0aCDKQO-16" value="&lt;div style=&quot;&quot;&gt;&lt;br&gt;&lt;/div&gt;" style="whiteSpace=wrap;html=1;rounded=1;fontSize=4;align=center;" vertex="1" parent="1">
          <mxGeometry x="320" y="460" width="54" height="120" as="geometry" />
        </mxCell>
        <mxCell id="ChtlxZ_2Yp7la0aCDKQO-24" value="事件入队" style="text;html=1;align=center;verticalAlign=middle;resizable=0;points=[];autosize=1;strokeColor=none;fillColor=none;fontSize=4;" vertex="1" parent="1">
          <mxGeometry x="350" y="440" width="60" height="10" as="geometry" />
        </mxCell>
        <mxCell id="ChtlxZ_2Yp7la0aCDKQO-25" value="&lt;div style=&quot;&quot;&gt;&lt;span style=&quot;background-color: initial;&quot;&gt;事&lt;br&gt;件&lt;br&gt;处&lt;br&gt;理&lt;/span&gt;&lt;/div&gt;&lt;div style=&quot;&quot;&gt;&lt;span style=&quot;background-color: initial;&quot;&gt;队&lt;/span&gt;&lt;/div&gt;&lt;div style=&quot;&quot;&gt;&lt;span style=&quot;background-color: initial;&quot;&gt;列&lt;/span&gt;&lt;/div&gt;" style="text;html=1;align=center;verticalAlign=middle;resizable=0;points=[];autosize=1;strokeColor=none;fillColor=none;fontSize=4;" vertex="1" parent="1">
          <mxGeometry x="290" y="505" width="30" height="40" as="geometry" />
        </mxCell>
        <mxCell id="ChtlxZ_2Yp7la0aCDKQO-26" value="&lt;font style=&quot;font-size: 1px;&quot;&gt;事件&lt;/font&gt;" style="rounded=0;whiteSpace=wrap;html=1;fontSize=1;fontFamily=Lucida Console;" vertex="1" parent="1">
          <mxGeometry x="322" y="470" width="50" height="20" as="geometry" />
        </mxCell>
        <mxCell id="ChtlxZ_2Yp7la0aCDKQO-27" value="&lt;font style=&quot;font-size: 1px;&quot;&gt;事件&lt;/font&gt;" style="rounded=0;whiteSpace=wrap;html=1;fontSize=1;fontFamily=Lucida Console;" vertex="1" parent="1">
          <mxGeometry x="322" y="505" width="50" height="20" as="geometry" />
        </mxCell>
        <mxCell id="ChtlxZ_2Yp7la0aCDKQO-28" value="&lt;font style=&quot;font-size: 1px;&quot;&gt;事件&lt;/font&gt;" style="rounded=0;whiteSpace=wrap;html=1;fontSize=1;fontFamily=Lucida Console;" vertex="1" parent="1">
          <mxGeometry x="322" y="545" width="50" height="20" as="geometry" />
        </mxCell>
        <mxCell id="ChtlxZ_2Yp7la0aCDKQO-29" value="put" style="whiteSpace=wrap;html=1;rounded=1;fontFamily=Lucida Console;fontSize=1;" vertex="1" parent="1">
          <mxGeometry x="440" y="620" width="40" height="20" as="geometry" />
        </mxCell>
        <mxCell id="ChtlxZ_2Yp7la0aCDKQO-30" value="get" style="whiteSpace=wrap;html=1;rounded=1;fontFamily=Lucida Console;fontSize=1;" vertex="1" parent="1">
          <mxGeometry x="440" y="660" width="40" height="20" as="geometry" />
        </mxCell>
        <mxCell id="ChtlxZ_2Yp7la0aCDKQO-31" value="other" style="whiteSpace=wrap;html=1;rounded=1;fontFamily=Lucida Console;fontSize=1;" vertex="1" parent="1">
          <mxGeometry x="440" y="700" width="40" height="20" as="geometry" />
        </mxCell>
        <mxCell id="ChtlxZ_2Yp7la0aCDKQO-36" value="事件出列" style="text;html=1;align=center;verticalAlign=middle;resizable=0;points=[];autosize=1;strokeColor=none;fillColor=none;fontSize=1;fontFamily=Lucida Console;" vertex="1" parent="1">
          <mxGeometry x="354" y="600" width="60" height="10" as="geometry" />
        </mxCell>
        <mxCell id="ChtlxZ_2Yp7la0aCDKQO-37" value="调&lt;br&gt;用&lt;br&gt;对&lt;br&gt;应&lt;br&gt;的&lt;br&gt;处&lt;br&gt;理&lt;br&gt;函&lt;br&gt;数" style="text;html=1;align=center;verticalAlign=middle;resizable=0;points=[];autosize=1;strokeColor=none;fillColor=none;fontSize=4;" vertex="1" parent="1">
          <mxGeometry x="320" y="630" width="30" height="50" as="geometry" />
        </mxCell>
      </root>
    </mxGraphModel>
  </diagram>
</mxfile>
